<svg width="211" height="69" viewBox="0 0 211 69" fill="none" xmlns="http://www.w3.org/2000/svg">
<g clip-path="url(#clip0)">
<path d="M208.043 13.3244H203.313L194.492 13.272H199.222L208.043 13.3244Z" fill="#656C72"/>
<path d="M199.222 13.272H194.492C193.655 10.0038 190.704 7.78304 186.497 7.76208H191.227C195.434 7.78304 198.385 10.0142 199.222 13.272Z" fill="#A5AFBB"/>
<path fill-rule="evenodd" clip-rule="evenodd" d="M192.975 22.2597H192.985C192.389 22.9406 191.656 23.5063 190.809 23.9358H195.538C196.386 23.5063 197.118 22.9406 197.715 22.2597H197.704C198.437 21.4427 198.96 20.458 199.243 19.3581H194.513C194.23 20.4475 193.707 21.4322 192.975 22.2597ZM191.143 24.91H186.557C188.172 24.8998 189.599 24.5463 190.809 23.9358H195.538C194.304 24.5747 192.818 24.9204 191.143 24.91ZM186.414 24.91C186.462 24.9103 186.509 24.9103 186.557 24.91H186.414Z" fill="url(#paint0_linear)"/>
<path fill-rule="evenodd" clip-rule="evenodd" d="M177.278 2.82827L177.289 2.82827C175.562 3.70819 174.087 4.84998 172.884 6.21175H177.613C178.806 4.86046 180.282 3.70819 182.019 2.82827L182.008 2.82827C184.489 1.55583 187.484 0.837359 190.897 0.81704H191.196C191.096 0.816449 190.996 0.81645 190.897 0.81704H186.466C182.919 0.79609 179.832 1.51888 177.278 2.82827ZM191.342 31.7921H186.612C175.803 31.7293 169.179 24.9414 169.221 16.2051C169.242 12.3293 170.529 8.87245 172.884 6.21176H177.613C175.259 8.87245 173.972 12.3293 173.951 16.2051C173.909 24.9414 180.533 31.7398 191.342 31.7921Z" fill="url(#paint1_linear)"/>
<path d="M191.196 0.817037C191.29 0.817037 191.384 0.817037 191.489 0.817037C200.927 0.869413 206.881 6.05463 208.043 13.3244L199.222 13.272C198.385 10.0038 195.434 7.78303 191.227 7.76208C185.932 7.73065 182.678 11.4598 182.657 16.2574C182.636 21.0446 185.849 24.8785 191.154 24.9099C195.36 24.9309 198.385 22.6683 199.264 19.3581L207.959 19.4105C206.672 26.7222 200.906 31.7921 191.353 31.8026C180.543 31.7398 173.92 24.9518 173.961 16.2155C173.993 7.43735 180.564 0.754186 191.196 0.817037Z" fill="#ECEEF0"/>
<path d="M173.777 8.20209H169.047L149.762 8.09734H154.492L173.777 8.20209Z" fill="#656C72"/>
<path d="M172.595 18.8972H167.865L149.72 18.7925H154.45L172.595 18.8972Z" fill="#656C72"/>
<path d="M173.673 30.7551H168.943L141.412 30.6085H146.141L173.673 30.7551Z" fill="#656C72"/>
<path d="M146.141 30.6085H141.412L141.548 1.35132H146.278L146.141 30.6085Z" fill="#8A97A4"/>
<path d="M173.809 1.50845L173.777 8.20208L154.492 8.09733L154.471 12.9473L172.616 13.0521L172.595 18.8972L154.45 18.7925L154.419 23.9463L173.704 24.0615L173.673 30.7551L146.141 30.6085L146.278 1.35132L173.809 1.50845Z" fill="#ECEEF0"/>
<path d="M133.239 11.9627H128.52L128.562 1.27799H133.292L133.239 11.9627Z" fill="#8E9CA3"/>
<path d="M133.156 30.5247H128.426L128.478 19.6515H133.208L133.156 30.5247Z" fill="#8E9CA3"/>
<path d="M141.412 30.5771H136.682L128.426 30.5247H133.156L141.412 30.5771Z" fill="#656C72"/>
<path d="M133.208 19.6515H128.478L115.231 19.5781H119.96L133.208 19.6515Z" fill="#656C72"/>
<path d="M111.662 30.4095H106.933L107.069 1.15229H111.798L111.662 30.4095Z" fill="#8996A0"/>
<path d="M119.908 30.4514H115.178L106.933 30.4095H111.662L119.908 30.4514Z" fill="#656C72"/>
<path d="M141.548 1.31989L141.412 30.5771L133.156 30.5247L133.208 19.6515L119.96 19.5781L119.908 30.4514L111.662 30.4095L111.798 1.15229L120.044 1.20467L119.992 11.8893L133.239 11.9627L133.292 1.27799L141.548 1.31989Z" fill="#ECEEF0"/>
<path fill-rule="evenodd" clip-rule="evenodd" d="M94.0722 19.3896H94.0722C94.9931 19.6934 95.6732 20.5 95.6628 21.7255C95.6628 22.4693 95.4535 23.1606 94.9826 23.6844H99.7124C100.183 23.1502 100.393 22.4693 100.393 21.7255C100.393 20.4999 99.7124 19.6934 98.802 19.3896L98.802 19.3896C98.0695 19.0753 97.2742 19.002 94.8884 18.9915H90.1586C92.534 19.002 93.3397 19.0753 94.0722 19.3896ZM89.3425 25.13H94.0722C96.8124 25.13 97.7274 24.7701 98.4783 24.4747C98.5275 24.4554 98.5759 24.4363 98.6241 24.4177L98.6241 24.4177C98.7217 24.3786 98.8193 24.3395 98.9083 24.292H98.9276C99.2415 24.1244 99.5031 23.9149 99.7124 23.6844H94.9826C94.7777 23.9203 94.5226 24.1161 94.2173 24.2815H94.1978C94.1036 24.3339 93.999 24.3758 93.8944 24.4177L93.8943 24.4177C93.8442 24.4371 93.7939 24.4569 93.7428 24.477L93.7428 24.477L93.7428 24.477C92.994 24.772 92.0852 25.13 89.3425 25.13Z" fill="#7A8696"/>
<path fill-rule="evenodd" clip-rule="evenodd" d="M93.0572 6.90317H97.787C96.7092 6.41084 95.3384 6.21181 93.6327 6.20133H93.5385H88.903C90.6086 6.21181 91.9794 6.41084 93.0572 6.90317ZM94.4594 11.3446C94.857 10.8942 95.0349 10.3181 95.0454 9.62672C95.0454 8.64205 94.5431 7.53168 93.0677 6.91365H97.7974C99.2729 7.53168 99.7752 8.65253 99.7752 9.62672C99.7647 10.3076 99.5868 10.8942 99.1892 11.3446H99.1892C98.9903 11.5541 98.7497 11.7427 98.4567 11.8998H98.4384C98.3179 11.9677 98.188 12.0176 98.0486 12.0674H93.3188C93.4653 12.0151 93.6013 11.9522 93.7269 11.8894H93.7476C94.0318 11.7442 94.2755 11.5594 94.4594 11.3446ZM95.15 12.3607H90.4202C91.6341 12.3607 92.4607 12.3293 93.3188 12.0779H98.0485C97.1905 12.3188 96.3638 12.3607 95.15 12.3607Z" fill="#6E7886"/>
<path d="M94.8884 18.9915H90.1586L82.9279 18.9496H87.6577L94.8884 18.9915Z" fill="#656C72"/>
<path d="M87.6577 18.9496H82.9279L82.9593 12.3188H87.6891L87.6577 18.9496Z" fill="#8F9BA8"/>
<path d="M87.5949 9.23913H82.8651L73.9916 9.19723H78.7213L87.5949 9.23913Z" fill="#656C72"/>
<path fill-rule="evenodd" clip-rule="evenodd" d="M83.7859 1.87508H79.0562C79.4852 1.6551 79.9352 1.46655 80.406 1.29894C83.1686 0.293328 86.0462 2.28882e-05 89.1749 2.28882e-05H93.9047C90.776 2.28882e-05 87.8983 0.293328 85.1358 1.29894C84.6649 1.46655 84.215 1.66558 83.7859 1.87508ZM78.7213 9.19723H73.9916C74.2427 7.16505 75.0275 5.42617 76.2518 4.04344H80.9816C79.7573 5.41569 78.9725 7.16505 78.7213 9.19723ZM76.2518 4.03297H80.9816C81.7455 3.16353 82.6872 2.44074 83.786 1.87508H79.0562C77.9679 2.44074 77.0261 3.16353 76.2518 4.03297Z" fill="#AFB9C5"/>
<path d="M94.1768 2.54144e-05C97.8288 0.0209758 100.434 0.523784 102.203 1.08944C106.231 2.33599 108.377 5.05954 108.366 8.30684C108.345 11.6903 106.462 13.9006 103.615 15.1681C107.079 16.1004 109.057 18.7611 109.046 22.0817C109.025 25.8947 106.734 28.8906 102.862 30.0952C100.926 30.6923 98.5299 31.1742 93.8106 31.1532C90.0017 31.1323 86.7055 30.7447 84.4871 29.8752C81.1909 28.5658 78.8679 25.968 78.4388 21.7255L87.5426 21.7779C87.8251 23.014 88.6727 23.873 89.5308 24.3129C90.3888 24.7424 91.791 25.1195 93.9048 25.13C96.9707 25.1509 97.8288 24.7319 98.6241 24.4177C99.8693 23.9358 100.393 22.8883 100.403 21.7255C100.413 20.4999 99.7333 19.6934 98.8124 19.3896C98.0799 19.0753 97.2742 19.002 94.8989 18.9915L87.6682 18.9496L87.6996 12.3084L94.4175 12.3503C96.0708 12.3607 97.0335 12.3607 98.059 12.0674C99.2519 11.6379 99.7751 10.7895 99.7856 9.61624C99.7856 8.63157 99.2833 7.5212 97.8079 6.90317C96.7301 6.41083 95.3593 6.21181 93.6536 6.20133C92.1154 6.19086 90.9748 6.37941 90.0017 6.79842C88.9134 7.2279 88.1809 7.89831 87.5949 9.24961L78.7214 9.19723C79.1923 5.39474 81.5467 2.57692 85.1359 1.29895C87.9821 0.27238 90.9434 -0.0209249 94.1768 2.54144e-05Z" fill="#ECEEF0"/>
<path d="M94.1559 31.1637H89.4261C89.311 31.1637 89.1855 31.1637 89.0704 31.1637C85.2614 31.1427 81.9652 30.7552 79.7469 29.8857C76.4507 28.5763 74.1276 25.9785 73.6986 21.736H78.4284C78.8574 25.9785 81.1909 28.5763 84.4766 29.8857C86.6845 30.7552 89.9807 31.1427 93.8001 31.1637C93.9257 31.1637 94.0408 31.1637 94.1559 31.1637Z" fill="#8A949D"/>
<path d="M76.7437 30.1895H72.0139L63.7682 30.1476H68.498L76.7437 30.1895Z" fill="#656C72"/>
<path d="M68.498 30.1476H63.7682L63.852 13.1254H68.5713L68.498 30.1476Z" fill="#8C98A5"/>
<path d="M55.3028 17.8497H50.573L64.8774 0.900887H69.6072L55.3028 17.8497Z" fill="#B6C0CB"/>
<path d="M46.9943 30.0324H42.2645L42.4006 0.775185H47.1303L46.9943 30.0324Z" fill="#8B959E"/>
<path d="M54.2773 30.0743L49.5475 30.0638L42.2645 30.0324H46.9943L54.2773 30.0743Z" fill="#656C72"/>
<path d="M76.8798 0.942787L76.7437 30.1895L68.498 30.1476L68.5713 13.1254L54.2773 30.0743L46.9943 30.0324L47.1304 0.775185L55.3865 0.817085L55.3028 17.8497L69.6072 0.900887L76.8798 0.942787Z" fill="#ECEEF0"/>
<path fill-rule="evenodd" clip-rule="evenodd" d="M36.2736 21.7779L36.2841 21.7779C36.6713 21.338 36.8387 20.7514 36.8491 20.1752C36.8491 19.3163 36.5143 18.6354 35.8341 18.2687C35.2691 17.965 34.5366 17.8916 33.6157 17.8916H28.886C29.7964 17.8916 30.5393 17.965 31.1044 18.2687C31.7845 18.6354 32.1194 19.3163 32.1194 20.1752C32.1194 20.7514 31.9415 21.338 31.5543 21.7779H31.5438C31.3869 21.9665 31.1985 22.1131 30.9578 22.2388H35.6876C35.9283 22.1236 36.1166 21.9665 36.2736 21.7779ZM30.9683 22.2388L30.7485 22.3331H35.4783L35.6981 22.2388H30.9683ZM33.6681 22.574H28.9383C29.7022 22.574 30.2986 22.5112 30.7486 22.3436H35.4783C35.0284 22.5112 34.4319 22.574 33.6681 22.574Z" fill="url(#paint2_linear)"/>
<path d="M42.5416 7.50026H37.8119L17.679 7.38503H22.4087L42.5416 7.50026Z" fill="#656C72"/>
<path d="M33.6157 17.8916H28.8859L17.6266 17.8288H22.3564L33.6157 17.8916Z" fill="#656C72"/>
<path d="M14.0479 29.8333H9.31812L9.45415 0.586639H14.1839L14.0479 29.8333Z" fill="#95A3AB"/>
<path d="M33.2704 29.9381H28.5511L9.31812 29.8333H14.0479L33.2704 29.9381Z" fill="#656C72"/>
<path d="M39.6116 12.2141C42.7404 13.5235 44.7181 16.4146 44.6972 20.6047C44.6762 24.711 42.5625 27.8431 39.4233 29.121C37.9478 29.7286 35.9492 29.959 33.2808 29.9486L14.0479 29.8438L14.1839 0.586639L42.573 0.733292L42.5416 7.48978L22.4087 7.38503L22.3877 11.3132L34.1075 11.3761C36.2108 11.397 38.1467 11.5961 39.6116 12.2141ZM35.4783 22.3331C36.4515 21.956 36.8491 21.0447 36.8491 20.1857C36.8491 19.3267 36.5143 18.6458 35.8341 18.2792C35.269 17.9754 34.5261 17.9021 33.6157 17.9021L22.3668 17.8393L22.3459 22.5112L33.5948 22.574C34.39 22.574 35.0074 22.5112 35.4783 22.3331Z" fill="#ECEEF0"/>
<path d="M150.013 50.1796L145.283 50.1691L145.325 41.7785L150.055 41.789L150.013 50.1796Z" fill="#E5AE01"/>
<path d="M149.961 61.6604H145.231L145.263 54.8515H149.992L149.961 61.6604Z" fill="#E3AC08"/>
<path d="M155.758 61.6918H151.028L145.231 61.6604H149.961L155.758 61.6918Z" fill="#80690B"/>
<path d="M146.319 50.3577H141.59C142.814 50.3577 144.07 50.2844 145.294 50.1691H150.024C148.789 50.2844 147.544 50.3577 146.319 50.3577Z" fill="#DBA702"/>
<path d="M136.347 48.7654H131.617L131.659 41.7052H136.389L136.347 48.7654Z" fill="#DBA702"/>
<path d="M144.52 55.0715H139.79C139.706 55.0715 139.633 55.0715 139.549 55.0715C138.273 55.061 136.535 54.9668 135.186 54.5897C132.915 53.9088 131.607 52.2746 131.617 48.7654H136.347C136.326 52.2746 137.645 53.9088 139.915 54.5897C141.265 54.9772 143.002 55.0715 144.279 55.0715C144.363 55.0715 144.436 55.0715 144.52 55.0715Z" fill="#DBA702"/>
<path d="M155.852 41.8204L155.758 61.6918L149.961 61.6604L149.992 54.8515C148.025 54.9668 146.246 55.082 144.279 55.0715C143.002 55.061 141.265 54.9668 139.915 54.5897C137.645 53.9088 136.337 52.2746 136.347 48.7655L136.379 41.7157L142.249 41.7471L142.228 47.257C142.218 48.8807 142.72 49.7606 143.641 50.1063C144.132 50.2739 144.677 50.3577 146.152 50.3682C147.429 50.3786 148.737 50.2948 150.013 50.1796L150.055 41.789L155.852 41.8204Z" fill="#FFDE01"/>
<path d="M126.5 48.9226H121.771L121.802 41.6528H126.532L126.5 48.9226Z" fill="#EBAE00"/>
<path d="M126.438 61.5242H121.708L121.75 54.1392H126.48L126.438 61.5242Z" fill="#EBAE00"/>
<path d="M132.046 61.5556H127.317L121.708 61.5242H126.438L132.046 61.5556Z" fill="#80690B"/>
<path d="M126.479 54.1392H121.75L112.751 54.0868H117.48L126.479 54.1392Z" fill="#80690B"/>
<path d="M111.851 61.4509H107.121L107.215 41.5795H111.945L111.851 61.4509Z" fill="#E1AC03"/>
<path d="M117.449 61.4823H112.719L107.121 61.4509H111.851L117.449 61.4823Z" fill="#80690B"/>
<path d="M132.141 41.6842L132.046 61.5556L126.438 61.5242L126.48 54.1392L117.48 54.0868L117.449 61.4823L111.851 61.4509L111.945 41.5795L117.543 41.6004L117.501 48.8702L126.5 48.9226L126.532 41.6528L132.141 41.6842Z" fill="#FFDE01"/>
<path d="M109.758 61.4404H105.028L98.7287 61.3985H103.458L109.758 61.4404Z" fill="#80690B"/>
<path d="M103.458 61.3985H98.7287L97.6614 58.5074H102.391L103.458 61.3985Z" fill="#D29E0A"/>
<path d="M101.062 54.1183H96.3324L93.7059 46.0943H98.4357L101.062 54.1183Z" fill="#D29E0A"/>
<path d="M102.391 58.5074H97.6613L89.1645 58.4655H93.8943L102.391 58.5074Z" fill="#80690B"/>
<path d="M86.5066 61.3042H81.7769L89.4052 41.4747H94.1349L86.5066 61.3042Z" fill="#F2C100"/>
<path d="M92.8479 61.3461H88.1181L81.7769 61.3042H86.5066L92.8479 61.3461Z" fill="#80690B"/>
<path d="M102.328 41.5271L109.768 61.4404L103.469 61.409L102.402 58.5178L93.9047 58.4759L92.8479 61.3566L86.5171 61.3252L94.1349 41.4957L102.328 41.5271ZM95.3174 54.0868L101.062 54.1183L98.4357 46.0943H98.0067L95.3174 54.0868Z" fill="#FFDE01"/>
<path d="M85.7219 61.3042H80.9921L74.609 61.2728H79.3388L85.7219 61.3042Z" fill="#80690B"/>
<path d="M79.3388 61.2728H74.609L69.9315 47.3408H74.6613L79.3388 61.2728Z" fill="#D29E0A"/>
<path d="M74.6613 47.3408H69.9315L69.199 47.3304H73.9288L74.6613 47.3408Z" fill="#80690B"/>
<path d="M69.1049 61.21H64.3751L58.0129 61.1785H62.7427L69.1049 61.21Z" fill="#80690B"/>
<path d="M62.7427 61.1785H58.0129L65.2855 41.349H70.0153L62.7427 61.1785Z" fill="#F1CA04"/>
<path d="M78.669 41.3909L85.7218 61.3042L79.3387 61.2728L74.6613 47.3408L73.9288 47.3304L69.1048 61.21L62.7427 61.1785L70.0152 41.349L78.669 41.3909Z" fill="#FFDE01"/>
</g>
<defs>
<linearGradient id="paint0_linear" x1="197.011" y1="19.3581" x2="188.797" y2="24.5334" gradientUnits="userSpaceOnUse">
<stop stop-color="#A5AFBB"/>
<stop offset="1" stop-color="#A5AFBB" stop-opacity="0.69"/>
</linearGradient>
<linearGradient id="paint1_linear" x1="174.09" y1="14.161" x2="169.219" y2="16.3006" gradientUnits="userSpaceOnUse">
<stop stop-color="#AEB8C4"/>
<stop offset="1" stop-color="#929AA3"/>
</linearGradient>
<linearGradient id="paint2_linear" x1="31.7067" y1="18.9604" x2="36.8498" y2="20.2303" gradientUnits="userSpaceOnUse">
<stop stop-color="#8796A2"/>
<stop offset="0.682671" stop-color="#9AA6B4"/>
</linearGradient>
<clipPath id="clip0">
<rect width="210.339" height="69" fill="white"/>
</clipPath>
</defs>
</svg>
